<svg xmlns="http://www.w3.org/2000/svg" viewBox="0 0 600 760" fill="none">
  <defs>
    <linearGradient id="bg" x1="0" y1="0" x2="1" y2="1">
      <stop offset="0%" stop-color="#f1efe8"/>
      <stop offset="100%" stop-color="#ffffff"/>
    </linearGradient>
    <linearGradient id="vase" x1="0" y1="0" x2="0" y2="1">
      <stop offset="0%" stop-color="#f6e7d1"/>
      <stop offset="100%" stop-color="#cda97f"/>
    </linearGradient>
  </defs>
  <rect width="600" height="760" fill="url(#bg)"/>
  <ellipse cx="300" cy="630" rx="180" ry="42" fill="#d1d1c8" opacity="0.45"/>
  <path d="M270 170h60c8 0 14 6 14 14v40h48v22h-46v258c0 53-34 96-76 96h-20c-42 0-76-43-76-96V246h-46v-22h48v-40c0-8 6-14 14-14h60z" fill="url(#vase)"/>
  <path d="M227 300c25-20 50-18 75 0 25 18 50 20 75 0" stroke="#bc8c58" stroke-width="8" opacity="0.36"/>
  <path d="M227 354c25-20 50-18 75 0 25 18 50 20 75 0" stroke="#bc8c58" stroke-width="8" opacity="0.36"/>
  <path d="M227 408c25-20 50-18 75 0 25 18 50 20 75 0" stroke="#bc8c58" stroke-width="8" opacity="0.36"/>
  <path d="M227 462c25-20 50-18 75 0 25 18 50 20 75 0" stroke="#bc8c58" stroke-width="8" opacity="0.36"/>
</svg>
